<mxfile host="app.diagrams.net" modified="2023-11-15T20:02:16.509Z" agent="Mozilla/5.0 (X11; Linux x86_64; rv:109.0) Gecko/20100101 Firefox/114.0" etag="cLL78oRY5VcGU_BrtRNN" version="22.1.2" type="github">
  <diagram name="Página-1" id="LVEK1Mfppwh2rmvJ2MU1">
    <mxGraphModel dx="789" dy="795" grid="1" gridSize="10" guides="1" tooltips="1" connect="1" arrows="1" fold="1" page="1" pageScale="1" pageWidth="827" pageHeight="1169" math="0" shadow="0">
      <root>
        <mxCell id="0" />
        <mxCell id="1" parent="0" />
        <mxCell id="ljbJ15JyHfFZLxI61GZZ-112" value="" style="shape=table;startSize=0;container=1;collapsible=0;childLayout=tableLayout;" vertex="1" parent="1">
          <mxGeometry x="33" y="30" width="760" height="240" as="geometry" />
        </mxCell>
        <mxCell id="ljbJ15JyHfFZLxI61GZZ-113" value="" style="shape=tableRow;horizontal=0;startSize=0;swimlaneHead=0;swimlaneBody=0;strokeColor=inherit;top=0;left=0;bottom=0;right=0;collapsible=0;dropTarget=0;fillColor=none;points=[[0,0.5],[1,0.5]];portConstraint=eastwest;" vertex="1" parent="ljbJ15JyHfFZLxI61GZZ-112">
          <mxGeometry width="760" height="40" as="geometry" />
        </mxCell>
        <mxCell id="ljbJ15JyHfFZLxI61GZZ-114" value="ProductoID" style="shape=partialRectangle;html=1;whiteSpace=wrap;connectable=0;strokeColor=inherit;overflow=hidden;fillColor=none;top=0;left=0;bottom=0;right=0;pointerEvents=1;" vertex="1" parent="ljbJ15JyHfFZLxI61GZZ-113">
          <mxGeometry width="108" height="40" as="geometry">
            <mxRectangle width="108" height="40" as="alternateBounds" />
          </mxGeometry>
        </mxCell>
        <mxCell id="ljbJ15JyHfFZLxI61GZZ-115" value="Nombre" style="shape=partialRectangle;html=1;whiteSpace=wrap;connectable=0;strokeColor=inherit;overflow=hidden;fillColor=none;top=0;left=0;bottom=0;right=0;pointerEvents=1;" vertex="1" parent="ljbJ15JyHfFZLxI61GZZ-113">
          <mxGeometry x="108" width="109" height="40" as="geometry">
            <mxRectangle width="109" height="40" as="alternateBounds" />
          </mxGeometry>
        </mxCell>
        <mxCell id="ljbJ15JyHfFZLxI61GZZ-116" value="Categorias" style="shape=partialRectangle;html=1;whiteSpace=wrap;connectable=0;strokeColor=inherit;overflow=hidden;fillColor=none;top=0;left=0;bottom=0;right=0;pointerEvents=1;" vertex="1" parent="ljbJ15JyHfFZLxI61GZZ-113">
          <mxGeometry x="217" width="107" height="40" as="geometry">
            <mxRectangle width="107" height="40" as="alternateBounds" />
          </mxGeometry>
        </mxCell>
        <mxCell id="ljbJ15JyHfFZLxI61GZZ-117" value="Precio" style="shape=partialRectangle;html=1;whiteSpace=wrap;connectable=0;strokeColor=inherit;overflow=hidden;fillColor=none;top=0;left=0;bottom=0;right=0;pointerEvents=1;" vertex="1" parent="ljbJ15JyHfFZLxI61GZZ-113">
          <mxGeometry x="324" width="112" height="40" as="geometry">
            <mxRectangle width="112" height="40" as="alternateBounds" />
          </mxGeometry>
        </mxCell>
        <mxCell id="ljbJ15JyHfFZLxI61GZZ-118" value="ClienteID" style="shape=partialRectangle;html=1;whiteSpace=wrap;connectable=0;strokeColor=inherit;overflow=hidden;fillColor=none;top=0;left=0;bottom=0;right=0;pointerEvents=1;" vertex="1" parent="ljbJ15JyHfFZLxI61GZZ-113">
          <mxGeometry x="436" width="107" height="40" as="geometry">
            <mxRectangle width="107" height="40" as="alternateBounds" />
          </mxGeometry>
        </mxCell>
        <mxCell id="ljbJ15JyHfFZLxI61GZZ-119" value="NombreCLiente" style="shape=partialRectangle;html=1;whiteSpace=wrap;connectable=0;strokeColor=inherit;overflow=hidden;fillColor=none;top=0;left=0;bottom=0;right=0;pointerEvents=1;" vertex="1" parent="ljbJ15JyHfFZLxI61GZZ-113">
          <mxGeometry x="543" width="109" height="40" as="geometry">
            <mxRectangle width="109" height="40" as="alternateBounds" />
          </mxGeometry>
        </mxCell>
        <mxCell id="ljbJ15JyHfFZLxI61GZZ-120" value="DireccionesEnvio" style="shape=partialRectangle;html=1;whiteSpace=wrap;connectable=0;strokeColor=inherit;overflow=hidden;fillColor=none;top=0;left=0;bottom=0;right=0;pointerEvents=1;" vertex="1" parent="ljbJ15JyHfFZLxI61GZZ-113">
          <mxGeometry x="652" width="108" height="40" as="geometry">
            <mxRectangle width="108" height="40" as="alternateBounds" />
          </mxGeometry>
        </mxCell>
        <mxCell id="ljbJ15JyHfFZLxI61GZZ-121" value="" style="shape=tableRow;horizontal=0;startSize=0;swimlaneHead=0;swimlaneBody=0;strokeColor=inherit;top=0;left=0;bottom=0;right=0;collapsible=0;dropTarget=0;fillColor=none;points=[[0,0.5],[1,0.5]];portConstraint=eastwest;" vertex="1" parent="ljbJ15JyHfFZLxI61GZZ-112">
          <mxGeometry y="40" width="760" height="40" as="geometry" />
        </mxCell>
        <mxCell id="ljbJ15JyHfFZLxI61GZZ-122" value="1" style="shape=partialRectangle;html=1;whiteSpace=wrap;connectable=0;strokeColor=inherit;overflow=hidden;fillColor=none;top=0;left=0;bottom=0;right=0;pointerEvents=1;" vertex="1" parent="ljbJ15JyHfFZLxI61GZZ-121">
          <mxGeometry width="108" height="40" as="geometry">
            <mxRectangle width="108" height="40" as="alternateBounds" />
          </mxGeometry>
        </mxCell>
        <mxCell id="ljbJ15JyHfFZLxI61GZZ-123" value="Laptop HP" style="shape=partialRectangle;html=1;whiteSpace=wrap;connectable=0;strokeColor=inherit;overflow=hidden;fillColor=none;top=0;left=0;bottom=0;right=0;pointerEvents=1;" vertex="1" parent="ljbJ15JyHfFZLxI61GZZ-121">
          <mxGeometry x="108" width="109" height="40" as="geometry">
            <mxRectangle width="109" height="40" as="alternateBounds" />
          </mxGeometry>
        </mxCell>
        <mxCell id="ljbJ15JyHfFZLxI61GZZ-124" value="Electrónicos" style="shape=partialRectangle;html=1;whiteSpace=wrap;connectable=0;strokeColor=inherit;overflow=hidden;fillColor=none;top=0;left=0;bottom=0;right=0;pointerEvents=1;" vertex="1" parent="ljbJ15JyHfFZLxI61GZZ-121">
          <mxGeometry x="217" width="107" height="40" as="geometry">
            <mxRectangle width="107" height="40" as="alternateBounds" />
          </mxGeometry>
        </mxCell>
        <mxCell id="ljbJ15JyHfFZLxI61GZZ-125" value="800" style="shape=partialRectangle;html=1;whiteSpace=wrap;connectable=0;strokeColor=inherit;overflow=hidden;fillColor=none;top=0;left=0;bottom=0;right=0;pointerEvents=1;" vertex="1" parent="ljbJ15JyHfFZLxI61GZZ-121">
          <mxGeometry x="324" width="112" height="40" as="geometry">
            <mxRectangle width="112" height="40" as="alternateBounds" />
          </mxGeometry>
        </mxCell>
        <mxCell id="ljbJ15JyHfFZLxI61GZZ-126" value="101" style="shape=partialRectangle;html=1;whiteSpace=wrap;connectable=0;strokeColor=inherit;overflow=hidden;fillColor=none;top=0;left=0;bottom=0;right=0;pointerEvents=1;" vertex="1" parent="ljbJ15JyHfFZLxI61GZZ-121">
          <mxGeometry x="436" width="107" height="40" as="geometry">
            <mxRectangle width="107" height="40" as="alternateBounds" />
          </mxGeometry>
        </mxCell>
        <mxCell id="ljbJ15JyHfFZLxI61GZZ-127" value="Juan" style="shape=partialRectangle;html=1;whiteSpace=wrap;connectable=0;strokeColor=inherit;overflow=hidden;fillColor=none;top=0;left=0;bottom=0;right=0;pointerEvents=1;" vertex="1" parent="ljbJ15JyHfFZLxI61GZZ-121">
          <mxGeometry x="543" width="109" height="40" as="geometry">
            <mxRectangle width="109" height="40" as="alternateBounds" />
          </mxGeometry>
        </mxCell>
        <mxCell id="ljbJ15JyHfFZLxI61GZZ-128" value="Calle 1, Ciudad A" style="shape=partialRectangle;html=1;whiteSpace=wrap;connectable=0;strokeColor=inherit;overflow=hidden;fillColor=none;top=0;left=0;bottom=0;right=0;pointerEvents=1;" vertex="1" parent="ljbJ15JyHfFZLxI61GZZ-121">
          <mxGeometry x="652" width="108" height="40" as="geometry">
            <mxRectangle width="108" height="40" as="alternateBounds" />
          </mxGeometry>
        </mxCell>
        <mxCell id="ljbJ15JyHfFZLxI61GZZ-129" value="" style="shape=tableRow;horizontal=0;startSize=0;swimlaneHead=0;swimlaneBody=0;strokeColor=inherit;top=0;left=0;bottom=0;right=0;collapsible=0;dropTarget=0;fillColor=none;points=[[0,0.5],[1,0.5]];portConstraint=eastwest;" vertex="1" parent="ljbJ15JyHfFZLxI61GZZ-112">
          <mxGeometry y="80" width="760" height="40" as="geometry" />
        </mxCell>
        <mxCell id="ljbJ15JyHfFZLxI61GZZ-130" value="1" style="shape=partialRectangle;html=1;whiteSpace=wrap;connectable=0;strokeColor=inherit;overflow=hidden;fillColor=none;top=0;left=0;bottom=0;right=0;pointerEvents=1;" vertex="1" parent="ljbJ15JyHfFZLxI61GZZ-129">
          <mxGeometry width="108" height="40" as="geometry">
            <mxRectangle width="108" height="40" as="alternateBounds" />
          </mxGeometry>
        </mxCell>
        <mxCell id="ljbJ15JyHfFZLxI61GZZ-131" value="Laptop HP" style="shape=partialRectangle;html=1;whiteSpace=wrap;connectable=0;strokeColor=inherit;overflow=hidden;fillColor=none;top=0;left=0;bottom=0;right=0;pointerEvents=1;" vertex="1" parent="ljbJ15JyHfFZLxI61GZZ-129">
          <mxGeometry x="108" width="109" height="40" as="geometry">
            <mxRectangle width="109" height="40" as="alternateBounds" />
          </mxGeometry>
        </mxCell>
        <mxCell id="ljbJ15JyHfFZLxI61GZZ-132" value="Informática" style="shape=partialRectangle;html=1;whiteSpace=wrap;connectable=0;strokeColor=inherit;overflow=hidden;fillColor=none;top=0;left=0;bottom=0;right=0;pointerEvents=1;" vertex="1" parent="ljbJ15JyHfFZLxI61GZZ-129">
          <mxGeometry x="217" width="107" height="40" as="geometry">
            <mxRectangle width="107" height="40" as="alternateBounds" />
          </mxGeometry>
        </mxCell>
        <mxCell id="ljbJ15JyHfFZLxI61GZZ-133" value="800" style="shape=partialRectangle;html=1;whiteSpace=wrap;connectable=0;strokeColor=inherit;overflow=hidden;fillColor=none;top=0;left=0;bottom=0;right=0;pointerEvents=1;" vertex="1" parent="ljbJ15JyHfFZLxI61GZZ-129">
          <mxGeometry x="324" width="112" height="40" as="geometry">
            <mxRectangle width="112" height="40" as="alternateBounds" />
          </mxGeometry>
        </mxCell>
        <mxCell id="ljbJ15JyHfFZLxI61GZZ-134" value="101" style="shape=partialRectangle;html=1;whiteSpace=wrap;connectable=0;strokeColor=inherit;overflow=hidden;fillColor=none;top=0;left=0;bottom=0;right=0;pointerEvents=1;" vertex="1" parent="ljbJ15JyHfFZLxI61GZZ-129">
          <mxGeometry x="436" width="107" height="40" as="geometry">
            <mxRectangle width="107" height="40" as="alternateBounds" />
          </mxGeometry>
        </mxCell>
        <mxCell id="ljbJ15JyHfFZLxI61GZZ-135" value="Juan" style="shape=partialRectangle;html=1;whiteSpace=wrap;connectable=0;strokeColor=inherit;overflow=hidden;fillColor=none;top=0;left=0;bottom=0;right=0;pointerEvents=1;" vertex="1" parent="ljbJ15JyHfFZLxI61GZZ-129">
          <mxGeometry x="543" width="109" height="40" as="geometry">
            <mxRectangle width="109" height="40" as="alternateBounds" />
          </mxGeometry>
        </mxCell>
        <mxCell id="ljbJ15JyHfFZLxI61GZZ-136" value="Calle 1, Ciudad B" style="shape=partialRectangle;html=1;whiteSpace=wrap;connectable=0;strokeColor=inherit;overflow=hidden;fillColor=none;top=0;left=0;bottom=0;right=0;pointerEvents=1;" vertex="1" parent="ljbJ15JyHfFZLxI61GZZ-129">
          <mxGeometry x="652" width="108" height="40" as="geometry">
            <mxRectangle width="108" height="40" as="alternateBounds" />
          </mxGeometry>
        </mxCell>
        <mxCell id="ljbJ15JyHfFZLxI61GZZ-137" value="" style="shape=tableRow;horizontal=0;startSize=0;swimlaneHead=0;swimlaneBody=0;strokeColor=inherit;top=0;left=0;bottom=0;right=0;collapsible=0;dropTarget=0;fillColor=none;points=[[0,0.5],[1,0.5]];portConstraint=eastwest;" vertex="1" parent="ljbJ15JyHfFZLxI61GZZ-112">
          <mxGeometry y="120" width="760" height="40" as="geometry" />
        </mxCell>
        <mxCell id="ljbJ15JyHfFZLxI61GZZ-138" value="1" style="shape=partialRectangle;html=1;whiteSpace=wrap;connectable=0;strokeColor=inherit;overflow=hidden;fillColor=none;top=0;left=0;bottom=0;right=0;pointerEvents=1;" vertex="1" parent="ljbJ15JyHfFZLxI61GZZ-137">
          <mxGeometry width="108" height="40" as="geometry">
            <mxRectangle width="108" height="40" as="alternateBounds" />
          </mxGeometry>
        </mxCell>
        <mxCell id="ljbJ15JyHfFZLxI61GZZ-139" value="Laptop HP" style="shape=partialRectangle;html=1;whiteSpace=wrap;connectable=0;strokeColor=inherit;overflow=hidden;fillColor=none;top=0;left=0;bottom=0;right=0;pointerEvents=1;" vertex="1" parent="ljbJ15JyHfFZLxI61GZZ-137">
          <mxGeometry x="108" width="109" height="40" as="geometry">
            <mxRectangle width="109" height="40" as="alternateBounds" />
          </mxGeometry>
        </mxCell>
        <mxCell id="ljbJ15JyHfFZLxI61GZZ-140" value="Electrónicos" style="shape=partialRectangle;html=1;whiteSpace=wrap;connectable=0;strokeColor=inherit;overflow=hidden;fillColor=none;top=0;left=0;bottom=0;right=0;pointerEvents=1;" vertex="1" parent="ljbJ15JyHfFZLxI61GZZ-137">
          <mxGeometry x="217" width="107" height="40" as="geometry">
            <mxRectangle width="107" height="40" as="alternateBounds" />
          </mxGeometry>
        </mxCell>
        <mxCell id="ljbJ15JyHfFZLxI61GZZ-141" value="800" style="shape=partialRectangle;html=1;whiteSpace=wrap;connectable=0;strokeColor=inherit;overflow=hidden;fillColor=none;top=0;left=0;bottom=0;right=0;pointerEvents=1;" vertex="1" parent="ljbJ15JyHfFZLxI61GZZ-137">
          <mxGeometry x="324" width="112" height="40" as="geometry">
            <mxRectangle width="112" height="40" as="alternateBounds" />
          </mxGeometry>
        </mxCell>
        <mxCell id="ljbJ15JyHfFZLxI61GZZ-142" value="101" style="shape=partialRectangle;html=1;whiteSpace=wrap;connectable=0;strokeColor=inherit;overflow=hidden;fillColor=none;top=0;left=0;bottom=0;right=0;pointerEvents=1;" vertex="1" parent="ljbJ15JyHfFZLxI61GZZ-137">
          <mxGeometry x="436" width="107" height="40" as="geometry">
            <mxRectangle width="107" height="40" as="alternateBounds" />
          </mxGeometry>
        </mxCell>
        <mxCell id="ljbJ15JyHfFZLxI61GZZ-143" value="Juan" style="shape=partialRectangle;html=1;whiteSpace=wrap;connectable=0;strokeColor=inherit;overflow=hidden;fillColor=none;top=0;left=0;bottom=0;right=0;pointerEvents=1;" vertex="1" parent="ljbJ15JyHfFZLxI61GZZ-137">
          <mxGeometry x="543" width="109" height="40" as="geometry">
            <mxRectangle width="109" height="40" as="alternateBounds" />
          </mxGeometry>
        </mxCell>
        <mxCell id="ljbJ15JyHfFZLxI61GZZ-144" value="Calle 2, Ciudad B" style="shape=partialRectangle;html=1;whiteSpace=wrap;connectable=0;strokeColor=inherit;overflow=hidden;fillColor=none;top=0;left=0;bottom=0;right=0;pointerEvents=1;" vertex="1" parent="ljbJ15JyHfFZLxI61GZZ-137">
          <mxGeometry x="652" width="108" height="40" as="geometry">
            <mxRectangle width="108" height="40" as="alternateBounds" />
          </mxGeometry>
        </mxCell>
        <mxCell id="ljbJ15JyHfFZLxI61GZZ-145" value="" style="shape=tableRow;horizontal=0;startSize=0;swimlaneHead=0;swimlaneBody=0;strokeColor=inherit;top=0;left=0;bottom=0;right=0;collapsible=0;dropTarget=0;fillColor=none;points=[[0,0.5],[1,0.5]];portConstraint=eastwest;" vertex="1" parent="ljbJ15JyHfFZLxI61GZZ-112">
          <mxGeometry y="160" width="760" height="40" as="geometry" />
        </mxCell>
        <mxCell id="ljbJ15JyHfFZLxI61GZZ-146" value="1" style="shape=partialRectangle;html=1;whiteSpace=wrap;connectable=0;strokeColor=inherit;overflow=hidden;fillColor=none;top=0;left=0;bottom=0;right=0;pointerEvents=1;" vertex="1" parent="ljbJ15JyHfFZLxI61GZZ-145">
          <mxGeometry width="108" height="40" as="geometry">
            <mxRectangle width="108" height="40" as="alternateBounds" />
          </mxGeometry>
        </mxCell>
        <mxCell id="ljbJ15JyHfFZLxI61GZZ-147" value="Laptop HP" style="shape=partialRectangle;html=1;whiteSpace=wrap;connectable=0;strokeColor=inherit;overflow=hidden;fillColor=none;top=0;left=0;bottom=0;right=0;pointerEvents=1;" vertex="1" parent="ljbJ15JyHfFZLxI61GZZ-145">
          <mxGeometry x="108" width="109" height="40" as="geometry">
            <mxRectangle width="109" height="40" as="alternateBounds" />
          </mxGeometry>
        </mxCell>
        <mxCell id="ljbJ15JyHfFZLxI61GZZ-148" value="Informática" style="shape=partialRectangle;html=1;whiteSpace=wrap;connectable=0;strokeColor=inherit;overflow=hidden;fillColor=none;top=0;left=0;bottom=0;right=0;pointerEvents=1;" vertex="1" parent="ljbJ15JyHfFZLxI61GZZ-145">
          <mxGeometry x="217" width="107" height="40" as="geometry">
            <mxRectangle width="107" height="40" as="alternateBounds" />
          </mxGeometry>
        </mxCell>
        <mxCell id="ljbJ15JyHfFZLxI61GZZ-149" value="800" style="shape=partialRectangle;html=1;whiteSpace=wrap;connectable=0;strokeColor=inherit;overflow=hidden;fillColor=none;top=0;left=0;bottom=0;right=0;pointerEvents=1;" vertex="1" parent="ljbJ15JyHfFZLxI61GZZ-145">
          <mxGeometry x="324" width="112" height="40" as="geometry">
            <mxRectangle width="112" height="40" as="alternateBounds" />
          </mxGeometry>
        </mxCell>
        <mxCell id="ljbJ15JyHfFZLxI61GZZ-150" value="101" style="shape=partialRectangle;html=1;whiteSpace=wrap;connectable=0;strokeColor=inherit;overflow=hidden;fillColor=none;top=0;left=0;bottom=0;right=0;pointerEvents=1;" vertex="1" parent="ljbJ15JyHfFZLxI61GZZ-145">
          <mxGeometry x="436" width="107" height="40" as="geometry">
            <mxRectangle width="107" height="40" as="alternateBounds" />
          </mxGeometry>
        </mxCell>
        <mxCell id="ljbJ15JyHfFZLxI61GZZ-151" value="Juan" style="shape=partialRectangle;html=1;whiteSpace=wrap;connectable=0;strokeColor=inherit;overflow=hidden;fillColor=none;top=0;left=0;bottom=0;right=0;pointerEvents=1;" vertex="1" parent="ljbJ15JyHfFZLxI61GZZ-145">
          <mxGeometry x="543" width="109" height="40" as="geometry">
            <mxRectangle width="109" height="40" as="alternateBounds" />
          </mxGeometry>
        </mxCell>
        <mxCell id="ljbJ15JyHfFZLxI61GZZ-152" value="Calle 2, Ciudad B" style="shape=partialRectangle;html=1;whiteSpace=wrap;connectable=0;strokeColor=inherit;overflow=hidden;fillColor=none;top=0;left=0;bottom=0;right=0;pointerEvents=1;" vertex="1" parent="ljbJ15JyHfFZLxI61GZZ-145">
          <mxGeometry x="652" width="108" height="40" as="geometry">
            <mxRectangle width="108" height="40" as="alternateBounds" />
          </mxGeometry>
        </mxCell>
        <mxCell id="ljbJ15JyHfFZLxI61GZZ-153" value="" style="shape=tableRow;horizontal=0;startSize=0;swimlaneHead=0;swimlaneBody=0;strokeColor=inherit;top=0;left=0;bottom=0;right=0;collapsible=0;dropTarget=0;fillColor=none;points=[[0,0.5],[1,0.5]];portConstraint=eastwest;" vertex="1" parent="ljbJ15JyHfFZLxI61GZZ-112">
          <mxGeometry y="200" width="760" height="40" as="geometry" />
        </mxCell>
        <mxCell id="ljbJ15JyHfFZLxI61GZZ-154" value="2" style="shape=partialRectangle;html=1;whiteSpace=wrap;connectable=0;strokeColor=inherit;overflow=hidden;fillColor=none;top=0;left=0;bottom=0;right=0;pointerEvents=1;" vertex="1" parent="ljbJ15JyHfFZLxI61GZZ-153">
          <mxGeometry width="108" height="40" as="geometry">
            <mxRectangle width="108" height="40" as="alternateBounds" />
          </mxGeometry>
        </mxCell>
        <mxCell id="ljbJ15JyHfFZLxI61GZZ-155" value="Camiseta Nike" style="shape=partialRectangle;html=1;whiteSpace=wrap;connectable=0;strokeColor=inherit;overflow=hidden;fillColor=none;top=0;left=0;bottom=0;right=0;pointerEvents=1;" vertex="1" parent="ljbJ15JyHfFZLxI61GZZ-153">
          <mxGeometry x="108" width="109" height="40" as="geometry">
            <mxRectangle width="109" height="40" as="alternateBounds" />
          </mxGeometry>
        </mxCell>
        <mxCell id="ljbJ15JyHfFZLxI61GZZ-156" value="Ropa" style="shape=partialRectangle;html=1;whiteSpace=wrap;connectable=0;strokeColor=inherit;overflow=hidden;fillColor=none;top=0;left=0;bottom=0;right=0;pointerEvents=1;" vertex="1" parent="ljbJ15JyHfFZLxI61GZZ-153">
          <mxGeometry x="217" width="107" height="40" as="geometry">
            <mxRectangle width="107" height="40" as="alternateBounds" />
          </mxGeometry>
        </mxCell>
        <mxCell id="ljbJ15JyHfFZLxI61GZZ-157" value="30" style="shape=partialRectangle;html=1;whiteSpace=wrap;connectable=0;strokeColor=inherit;overflow=hidden;fillColor=none;top=0;left=0;bottom=0;right=0;pointerEvents=1;" vertex="1" parent="ljbJ15JyHfFZLxI61GZZ-153">
          <mxGeometry x="324" width="112" height="40" as="geometry">
            <mxRectangle width="112" height="40" as="alternateBounds" />
          </mxGeometry>
        </mxCell>
        <mxCell id="ljbJ15JyHfFZLxI61GZZ-158" value="102" style="shape=partialRectangle;html=1;whiteSpace=wrap;connectable=0;strokeColor=inherit;overflow=hidden;fillColor=none;top=0;left=0;bottom=0;right=0;pointerEvents=1;" vertex="1" parent="ljbJ15JyHfFZLxI61GZZ-153">
          <mxGeometry x="436" width="107" height="40" as="geometry">
            <mxRectangle width="107" height="40" as="alternateBounds" />
          </mxGeometry>
        </mxCell>
        <mxCell id="ljbJ15JyHfFZLxI61GZZ-159" value="María" style="shape=partialRectangle;html=1;whiteSpace=wrap;connectable=0;strokeColor=inherit;overflow=hidden;fillColor=none;top=0;left=0;bottom=0;right=0;pointerEvents=1;" vertex="1" parent="ljbJ15JyHfFZLxI61GZZ-153">
          <mxGeometry x="543" width="109" height="40" as="geometry">
            <mxRectangle width="109" height="40" as="alternateBounds" />
          </mxGeometry>
        </mxCell>
        <mxCell id="ljbJ15JyHfFZLxI61GZZ-160" value="Calle 3,Ciudad B" style="shape=partialRectangle;html=1;whiteSpace=wrap;connectable=0;strokeColor=inherit;overflow=hidden;fillColor=none;top=0;left=0;bottom=0;right=0;pointerEvents=1;" vertex="1" parent="ljbJ15JyHfFZLxI61GZZ-153">
          <mxGeometry x="652" width="108" height="40" as="geometry">
            <mxRectangle width="108" height="40" as="alternateBounds" />
          </mxGeometry>
        </mxCell>
        <mxCell id="ljbJ15JyHfFZLxI61GZZ-161" value="" style="shape=table;startSize=0;container=1;collapsible=0;childLayout=tableLayout;" vertex="1" parent="1">
          <mxGeometry x="33" y="270" width="760" height="40" as="geometry" />
        </mxCell>
        <mxCell id="ljbJ15JyHfFZLxI61GZZ-162" value="" style="shape=tableRow;horizontal=0;startSize=0;swimlaneHead=0;swimlaneBody=0;strokeColor=inherit;top=0;left=0;bottom=0;right=0;collapsible=0;dropTarget=0;fillColor=none;points=[[0,0.5],[1,0.5]];portConstraint=eastwest;" vertex="1" parent="ljbJ15JyHfFZLxI61GZZ-161">
          <mxGeometry width="760" height="40" as="geometry" />
        </mxCell>
        <mxCell id="ljbJ15JyHfFZLxI61GZZ-163" value="2" style="shape=partialRectangle;html=1;whiteSpace=wrap;connectable=0;strokeColor=inherit;overflow=hidden;fillColor=none;top=0;left=0;bottom=0;right=0;pointerEvents=1;" vertex="1" parent="ljbJ15JyHfFZLxI61GZZ-162">
          <mxGeometry width="110" height="40" as="geometry">
            <mxRectangle width="110" height="40" as="alternateBounds" />
          </mxGeometry>
        </mxCell>
        <mxCell id="ljbJ15JyHfFZLxI61GZZ-164" value="Camiseta Nike" style="shape=partialRectangle;html=1;whiteSpace=wrap;connectable=0;strokeColor=inherit;overflow=hidden;fillColor=none;top=0;left=0;bottom=0;right=0;pointerEvents=1;" vertex="1" parent="ljbJ15JyHfFZLxI61GZZ-162">
          <mxGeometry x="110" width="107" height="40" as="geometry">
            <mxRectangle width="107" height="40" as="alternateBounds" />
          </mxGeometry>
        </mxCell>
        <mxCell id="ljbJ15JyHfFZLxI61GZZ-165" value="Deportes" style="shape=partialRectangle;html=1;whiteSpace=wrap;connectable=0;strokeColor=inherit;overflow=hidden;fillColor=none;top=0;left=0;bottom=0;right=0;pointerEvents=1;" vertex="1" parent="ljbJ15JyHfFZLxI61GZZ-162">
          <mxGeometry x="217" width="109" height="40" as="geometry">
            <mxRectangle width="109" height="40" as="alternateBounds" />
          </mxGeometry>
        </mxCell>
        <mxCell id="ljbJ15JyHfFZLxI61GZZ-166" value="30" style="shape=partialRectangle;html=1;whiteSpace=wrap;connectable=0;strokeColor=inherit;overflow=hidden;fillColor=none;top=0;left=0;bottom=0;right=0;pointerEvents=1;" vertex="1" parent="ljbJ15JyHfFZLxI61GZZ-162">
          <mxGeometry x="326" width="108" height="40" as="geometry">
            <mxRectangle width="108" height="40" as="alternateBounds" />
          </mxGeometry>
        </mxCell>
        <mxCell id="ljbJ15JyHfFZLxI61GZZ-167" value="102" style="shape=partialRectangle;html=1;whiteSpace=wrap;connectable=0;strokeColor=inherit;overflow=hidden;fillColor=none;top=0;left=0;bottom=0;right=0;pointerEvents=1;" vertex="1" parent="ljbJ15JyHfFZLxI61GZZ-162">
          <mxGeometry x="434" width="109" height="40" as="geometry">
            <mxRectangle width="109" height="40" as="alternateBounds" />
          </mxGeometry>
        </mxCell>
        <mxCell id="ljbJ15JyHfFZLxI61GZZ-168" value="María" style="shape=partialRectangle;html=1;whiteSpace=wrap;connectable=0;strokeColor=inherit;overflow=hidden;fillColor=none;top=0;left=0;bottom=0;right=0;pointerEvents=1;" vertex="1" parent="ljbJ15JyHfFZLxI61GZZ-162">
          <mxGeometry x="543" width="108" height="40" as="geometry">
            <mxRectangle width="108" height="40" as="alternateBounds" />
          </mxGeometry>
        </mxCell>
        <mxCell id="ljbJ15JyHfFZLxI61GZZ-169" value="Calle 3, Ciudad B" style="shape=partialRectangle;html=1;whiteSpace=wrap;connectable=0;strokeColor=inherit;overflow=hidden;fillColor=none;top=0;left=0;bottom=0;right=0;pointerEvents=1;" vertex="1" parent="ljbJ15JyHfFZLxI61GZZ-162">
          <mxGeometry x="651" width="109" height="40" as="geometry">
            <mxRectangle width="109" height="40" as="alternateBounds" />
          </mxGeometry>
        </mxCell>
        <mxCell id="ljbJ15JyHfFZLxI61GZZ-170" value="" style="shape=table;startSize=0;container=1;collapsible=0;childLayout=tableLayout;" vertex="1" parent="1">
          <mxGeometry x="33" y="310" width="760" height="73" as="geometry" />
        </mxCell>
        <mxCell id="ljbJ15JyHfFZLxI61GZZ-171" value="" style="shape=tableRow;horizontal=0;startSize=0;swimlaneHead=0;swimlaneBody=0;strokeColor=inherit;top=0;left=0;bottom=0;right=0;collapsible=0;dropTarget=0;fillColor=none;points=[[0,0.5],[1,0.5]];portConstraint=eastwest;" vertex="1" parent="ljbJ15JyHfFZLxI61GZZ-170">
          <mxGeometry width="760" height="37" as="geometry" />
        </mxCell>
        <mxCell id="ljbJ15JyHfFZLxI61GZZ-172" value="3" style="shape=partialRectangle;html=1;whiteSpace=wrap;connectable=0;strokeColor=inherit;overflow=hidden;fillColor=none;top=0;left=0;bottom=0;right=0;pointerEvents=1;" vertex="1" parent="ljbJ15JyHfFZLxI61GZZ-171">
          <mxGeometry width="109" height="37" as="geometry">
            <mxRectangle width="109" height="37" as="alternateBounds" />
          </mxGeometry>
        </mxCell>
        <mxCell id="ljbJ15JyHfFZLxI61GZZ-173" value="Libro &quot;Dune&quot;" style="shape=partialRectangle;html=1;whiteSpace=wrap;connectable=0;strokeColor=inherit;overflow=hidden;fillColor=none;top=0;left=0;bottom=0;right=0;pointerEvents=1;" vertex="1" parent="ljbJ15JyHfFZLxI61GZZ-171">
          <mxGeometry x="109" width="108" height="37" as="geometry">
            <mxRectangle width="108" height="37" as="alternateBounds" />
          </mxGeometry>
        </mxCell>
        <mxCell id="ljbJ15JyHfFZLxI61GZZ-174" value="Libros" style="shape=partialRectangle;html=1;whiteSpace=wrap;connectable=0;strokeColor=inherit;overflow=hidden;fillColor=none;top=0;left=0;bottom=0;right=0;pointerEvents=1;" vertex="1" parent="ljbJ15JyHfFZLxI61GZZ-171">
          <mxGeometry x="217" width="109" height="37" as="geometry">
            <mxRectangle width="109" height="37" as="alternateBounds" />
          </mxGeometry>
        </mxCell>
        <mxCell id="ljbJ15JyHfFZLxI61GZZ-175" value="20" style="shape=partialRectangle;html=1;whiteSpace=wrap;connectable=0;strokeColor=inherit;overflow=hidden;fillColor=none;top=0;left=0;bottom=0;right=0;pointerEvents=1;" vertex="1" parent="ljbJ15JyHfFZLxI61GZZ-171">
          <mxGeometry x="326" width="108" height="37" as="geometry">
            <mxRectangle width="108" height="37" as="alternateBounds" />
          </mxGeometry>
        </mxCell>
        <mxCell id="ljbJ15JyHfFZLxI61GZZ-176" value="101" style="shape=partialRectangle;html=1;whiteSpace=wrap;connectable=0;strokeColor=inherit;overflow=hidden;fillColor=none;top=0;left=0;bottom=0;right=0;pointerEvents=1;" vertex="1" parent="ljbJ15JyHfFZLxI61GZZ-171">
          <mxGeometry x="434" width="109" height="37" as="geometry">
            <mxRectangle width="109" height="37" as="alternateBounds" />
          </mxGeometry>
        </mxCell>
        <mxCell id="ljbJ15JyHfFZLxI61GZZ-177" value="Juan" style="shape=partialRectangle;html=1;whiteSpace=wrap;connectable=0;strokeColor=inherit;overflow=hidden;fillColor=none;top=0;left=0;bottom=0;right=0;pointerEvents=1;" vertex="1" parent="ljbJ15JyHfFZLxI61GZZ-171">
          <mxGeometry x="543" width="108" height="37" as="geometry">
            <mxRectangle width="108" height="37" as="alternateBounds" />
          </mxGeometry>
        </mxCell>
        <mxCell id="ljbJ15JyHfFZLxI61GZZ-178" value="Calle 1, Ciudad A" style="shape=partialRectangle;html=1;whiteSpace=wrap;connectable=0;strokeColor=inherit;overflow=hidden;fillColor=none;top=0;left=0;bottom=0;right=0;pointerEvents=1;" vertex="1" parent="ljbJ15JyHfFZLxI61GZZ-171">
          <mxGeometry x="651" width="109" height="37" as="geometry">
            <mxRectangle width="109" height="37" as="alternateBounds" />
          </mxGeometry>
        </mxCell>
        <mxCell id="ljbJ15JyHfFZLxI61GZZ-179" value="" style="shape=tableRow;horizontal=0;startSize=0;swimlaneHead=0;swimlaneBody=0;strokeColor=inherit;top=0;left=0;bottom=0;right=0;collapsible=0;dropTarget=0;fillColor=none;points=[[0,0.5],[1,0.5]];portConstraint=eastwest;" vertex="1" parent="ljbJ15JyHfFZLxI61GZZ-170">
          <mxGeometry y="37" width="760" height="36" as="geometry" />
        </mxCell>
        <mxCell id="ljbJ15JyHfFZLxI61GZZ-180" value="3" style="shape=partialRectangle;html=1;whiteSpace=wrap;connectable=0;strokeColor=inherit;overflow=hidden;fillColor=none;top=0;left=0;bottom=0;right=0;pointerEvents=1;" vertex="1" parent="ljbJ15JyHfFZLxI61GZZ-179">
          <mxGeometry width="109" height="36" as="geometry">
            <mxRectangle width="109" height="36" as="alternateBounds" />
          </mxGeometry>
        </mxCell>
        <mxCell id="ljbJ15JyHfFZLxI61GZZ-181" value="Libro &quot;Dune&quot;" style="shape=partialRectangle;html=1;whiteSpace=wrap;connectable=0;strokeColor=inherit;overflow=hidden;fillColor=none;top=0;left=0;bottom=0;right=0;pointerEvents=1;" vertex="1" parent="ljbJ15JyHfFZLxI61GZZ-179">
          <mxGeometry x="109" width="108" height="36" as="geometry">
            <mxRectangle width="108" height="36" as="alternateBounds" />
          </mxGeometry>
        </mxCell>
        <mxCell id="ljbJ15JyHfFZLxI61GZZ-182" value="Ciencia Ficción" style="shape=partialRectangle;html=1;whiteSpace=wrap;connectable=0;strokeColor=inherit;overflow=hidden;fillColor=none;top=0;left=0;bottom=0;right=0;pointerEvents=1;" vertex="1" parent="ljbJ15JyHfFZLxI61GZZ-179">
          <mxGeometry x="217" width="109" height="36" as="geometry">
            <mxRectangle width="109" height="36" as="alternateBounds" />
          </mxGeometry>
        </mxCell>
        <mxCell id="ljbJ15JyHfFZLxI61GZZ-183" value="20" style="shape=partialRectangle;html=1;whiteSpace=wrap;connectable=0;strokeColor=inherit;overflow=hidden;fillColor=none;top=0;left=0;bottom=0;right=0;pointerEvents=1;" vertex="1" parent="ljbJ15JyHfFZLxI61GZZ-179">
          <mxGeometry x="326" width="108" height="36" as="geometry">
            <mxRectangle width="108" height="36" as="alternateBounds" />
          </mxGeometry>
        </mxCell>
        <mxCell id="ljbJ15JyHfFZLxI61GZZ-184" value="101" style="shape=partialRectangle;html=1;whiteSpace=wrap;connectable=0;strokeColor=inherit;overflow=hidden;fillColor=none;top=0;left=0;bottom=0;right=0;pointerEvents=1;" vertex="1" parent="ljbJ15JyHfFZLxI61GZZ-179">
          <mxGeometry x="434" width="109" height="36" as="geometry">
            <mxRectangle width="109" height="36" as="alternateBounds" />
          </mxGeometry>
        </mxCell>
        <mxCell id="ljbJ15JyHfFZLxI61GZZ-185" value="Juan" style="shape=partialRectangle;html=1;whiteSpace=wrap;connectable=0;strokeColor=inherit;overflow=hidden;fillColor=none;top=0;left=0;bottom=0;right=0;pointerEvents=1;" vertex="1" parent="ljbJ15JyHfFZLxI61GZZ-179">
          <mxGeometry x="543" width="108" height="36" as="geometry">
            <mxRectangle width="108" height="36" as="alternateBounds" />
          </mxGeometry>
        </mxCell>
        <mxCell id="ljbJ15JyHfFZLxI61GZZ-186" value="Calle 1, Ciudad B" style="shape=partialRectangle;html=1;whiteSpace=wrap;connectable=0;strokeColor=inherit;overflow=hidden;fillColor=none;top=0;left=0;bottom=0;right=0;pointerEvents=1;" vertex="1" parent="ljbJ15JyHfFZLxI61GZZ-179">
          <mxGeometry x="651" width="109" height="36" as="geometry">
            <mxRectangle width="109" height="36" as="alternateBounds" />
          </mxGeometry>
        </mxCell>
        <mxCell id="ljbJ15JyHfFZLxI61GZZ-214" value="" style="shape=table;startSize=0;container=1;collapsible=0;childLayout=tableLayout;" vertex="1" parent="1">
          <mxGeometry x="50" y="480" width="220" height="280" as="geometry" />
        </mxCell>
        <mxCell id="ljbJ15JyHfFZLxI61GZZ-215" value="" style="shape=tableRow;horizontal=0;startSize=0;swimlaneHead=0;swimlaneBody=0;strokeColor=inherit;top=0;left=0;bottom=0;right=0;collapsible=0;dropTarget=0;fillColor=none;points=[[0,0.5],[1,0.5]];portConstraint=eastwest;" vertex="1" parent="ljbJ15JyHfFZLxI61GZZ-214">
          <mxGeometry width="220" height="40" as="geometry" />
        </mxCell>
        <mxCell id="ljbJ15JyHfFZLxI61GZZ-216" value="Producto" style="shape=partialRectangle;html=1;whiteSpace=wrap;connectable=0;strokeColor=inherit;overflow=hidden;fillColor=none;top=0;left=0;bottom=0;right=0;pointerEvents=1;" vertex="1" parent="ljbJ15JyHfFZLxI61GZZ-215">
          <mxGeometry width="110" height="40" as="geometry">
            <mxRectangle width="110" height="40" as="alternateBounds" />
          </mxGeometry>
        </mxCell>
        <mxCell id="ljbJ15JyHfFZLxI61GZZ-217" value="Categoria" style="shape=partialRectangle;html=1;whiteSpace=wrap;connectable=0;strokeColor=inherit;overflow=hidden;fillColor=none;top=0;left=0;bottom=0;right=0;pointerEvents=1;" vertex="1" parent="ljbJ15JyHfFZLxI61GZZ-215">
          <mxGeometry x="110" width="110" height="40" as="geometry">
            <mxRectangle width="110" height="40" as="alternateBounds" />
          </mxGeometry>
        </mxCell>
        <mxCell id="ljbJ15JyHfFZLxI61GZZ-218" value="" style="shape=tableRow;horizontal=0;startSize=0;swimlaneHead=0;swimlaneBody=0;strokeColor=inherit;top=0;left=0;bottom=0;right=0;collapsible=0;dropTarget=0;fillColor=none;points=[[0,0.5],[1,0.5]];portConstraint=eastwest;" vertex="1" parent="ljbJ15JyHfFZLxI61GZZ-214">
          <mxGeometry y="40" width="220" height="40" as="geometry" />
        </mxCell>
        <mxCell id="ljbJ15JyHfFZLxI61GZZ-219" value="1" style="shape=partialRectangle;html=1;whiteSpace=wrap;connectable=0;strokeColor=inherit;overflow=hidden;fillColor=none;top=0;left=0;bottom=0;right=0;pointerEvents=1;" vertex="1" parent="ljbJ15JyHfFZLxI61GZZ-218">
          <mxGeometry width="110" height="40" as="geometry">
            <mxRectangle width="110" height="40" as="alternateBounds" />
          </mxGeometry>
        </mxCell>
        <mxCell id="ljbJ15JyHfFZLxI61GZZ-220" value="Electronicos" style="shape=partialRectangle;html=1;whiteSpace=wrap;connectable=0;strokeColor=inherit;overflow=hidden;fillColor=none;top=0;left=0;bottom=0;right=0;pointerEvents=1;" vertex="1" parent="ljbJ15JyHfFZLxI61GZZ-218">
          <mxGeometry x="110" width="110" height="40" as="geometry">
            <mxRectangle width="110" height="40" as="alternateBounds" />
          </mxGeometry>
        </mxCell>
        <mxCell id="ljbJ15JyHfFZLxI61GZZ-221" value="" style="shape=tableRow;horizontal=0;startSize=0;swimlaneHead=0;swimlaneBody=0;strokeColor=inherit;top=0;left=0;bottom=0;right=0;collapsible=0;dropTarget=0;fillColor=none;points=[[0,0.5],[1,0.5]];portConstraint=eastwest;" vertex="1" parent="ljbJ15JyHfFZLxI61GZZ-214">
          <mxGeometry y="80" width="220" height="40" as="geometry" />
        </mxCell>
        <mxCell id="ljbJ15JyHfFZLxI61GZZ-222" value="1" style="shape=partialRectangle;html=1;whiteSpace=wrap;connectable=0;strokeColor=inherit;overflow=hidden;fillColor=none;top=0;left=0;bottom=0;right=0;pointerEvents=1;" vertex="1" parent="ljbJ15JyHfFZLxI61GZZ-221">
          <mxGeometry width="110" height="40" as="geometry">
            <mxRectangle width="110" height="40" as="alternateBounds" />
          </mxGeometry>
        </mxCell>
        <mxCell id="ljbJ15JyHfFZLxI61GZZ-223" value="Informática" style="shape=partialRectangle;html=1;whiteSpace=wrap;connectable=0;strokeColor=inherit;overflow=hidden;fillColor=none;top=0;left=0;bottom=0;right=0;pointerEvents=1;" vertex="1" parent="ljbJ15JyHfFZLxI61GZZ-221">
          <mxGeometry x="110" width="110" height="40" as="geometry">
            <mxRectangle width="110" height="40" as="alternateBounds" />
          </mxGeometry>
        </mxCell>
        <mxCell id="ljbJ15JyHfFZLxI61GZZ-224" value="" style="shape=tableRow;horizontal=0;startSize=0;swimlaneHead=0;swimlaneBody=0;strokeColor=inherit;top=0;left=0;bottom=0;right=0;collapsible=0;dropTarget=0;fillColor=none;points=[[0,0.5],[1,0.5]];portConstraint=eastwest;" vertex="1" parent="ljbJ15JyHfFZLxI61GZZ-214">
          <mxGeometry y="120" width="220" height="40" as="geometry" />
        </mxCell>
        <mxCell id="ljbJ15JyHfFZLxI61GZZ-225" value="2" style="shape=partialRectangle;html=1;whiteSpace=wrap;connectable=0;strokeColor=inherit;overflow=hidden;fillColor=none;top=0;left=0;bottom=0;right=0;pointerEvents=1;" vertex="1" parent="ljbJ15JyHfFZLxI61GZZ-224">
          <mxGeometry width="110" height="40" as="geometry">
            <mxRectangle width="110" height="40" as="alternateBounds" />
          </mxGeometry>
        </mxCell>
        <mxCell id="ljbJ15JyHfFZLxI61GZZ-226" value="Ropa" style="shape=partialRectangle;html=1;whiteSpace=wrap;connectable=0;strokeColor=inherit;overflow=hidden;fillColor=none;top=0;left=0;bottom=0;right=0;pointerEvents=1;" vertex="1" parent="ljbJ15JyHfFZLxI61GZZ-224">
          <mxGeometry x="110" width="110" height="40" as="geometry">
            <mxRectangle width="110" height="40" as="alternateBounds" />
          </mxGeometry>
        </mxCell>
        <mxCell id="ljbJ15JyHfFZLxI61GZZ-227" value="" style="shape=tableRow;horizontal=0;startSize=0;swimlaneHead=0;swimlaneBody=0;strokeColor=inherit;top=0;left=0;bottom=0;right=0;collapsible=0;dropTarget=0;fillColor=none;points=[[0,0.5],[1,0.5]];portConstraint=eastwest;" vertex="1" parent="ljbJ15JyHfFZLxI61GZZ-214">
          <mxGeometry y="160" width="220" height="40" as="geometry" />
        </mxCell>
        <mxCell id="ljbJ15JyHfFZLxI61GZZ-228" value="2" style="shape=partialRectangle;html=1;whiteSpace=wrap;connectable=0;strokeColor=inherit;overflow=hidden;fillColor=none;top=0;left=0;bottom=0;right=0;pointerEvents=1;" vertex="1" parent="ljbJ15JyHfFZLxI61GZZ-227">
          <mxGeometry width="110" height="40" as="geometry">
            <mxRectangle width="110" height="40" as="alternateBounds" />
          </mxGeometry>
        </mxCell>
        <mxCell id="ljbJ15JyHfFZLxI61GZZ-229" value="Deportes" style="shape=partialRectangle;html=1;whiteSpace=wrap;connectable=0;strokeColor=inherit;overflow=hidden;fillColor=none;top=0;left=0;bottom=0;right=0;pointerEvents=1;" vertex="1" parent="ljbJ15JyHfFZLxI61GZZ-227">
          <mxGeometry x="110" width="110" height="40" as="geometry">
            <mxRectangle width="110" height="40" as="alternateBounds" />
          </mxGeometry>
        </mxCell>
        <mxCell id="ljbJ15JyHfFZLxI61GZZ-230" value="" style="shape=tableRow;horizontal=0;startSize=0;swimlaneHead=0;swimlaneBody=0;strokeColor=inherit;top=0;left=0;bottom=0;right=0;collapsible=0;dropTarget=0;fillColor=none;points=[[0,0.5],[1,0.5]];portConstraint=eastwest;" vertex="1" parent="ljbJ15JyHfFZLxI61GZZ-214">
          <mxGeometry y="200" width="220" height="40" as="geometry" />
        </mxCell>
        <mxCell id="ljbJ15JyHfFZLxI61GZZ-231" value="3" style="shape=partialRectangle;html=1;whiteSpace=wrap;connectable=0;strokeColor=inherit;overflow=hidden;fillColor=none;top=0;left=0;bottom=0;right=0;pointerEvents=1;" vertex="1" parent="ljbJ15JyHfFZLxI61GZZ-230">
          <mxGeometry width="110" height="40" as="geometry">
            <mxRectangle width="110" height="40" as="alternateBounds" />
          </mxGeometry>
        </mxCell>
        <mxCell id="ljbJ15JyHfFZLxI61GZZ-232" value="Libros" style="shape=partialRectangle;html=1;whiteSpace=wrap;connectable=0;strokeColor=inherit;overflow=hidden;fillColor=none;top=0;left=0;bottom=0;right=0;pointerEvents=1;" vertex="1" parent="ljbJ15JyHfFZLxI61GZZ-230">
          <mxGeometry x="110" width="110" height="40" as="geometry">
            <mxRectangle width="110" height="40" as="alternateBounds" />
          </mxGeometry>
        </mxCell>
        <mxCell id="ljbJ15JyHfFZLxI61GZZ-233" value="" style="shape=tableRow;horizontal=0;startSize=0;swimlaneHead=0;swimlaneBody=0;strokeColor=inherit;top=0;left=0;bottom=0;right=0;collapsible=0;dropTarget=0;fillColor=none;points=[[0,0.5],[1,0.5]];portConstraint=eastwest;" vertex="1" parent="ljbJ15JyHfFZLxI61GZZ-214">
          <mxGeometry y="240" width="220" height="40" as="geometry" />
        </mxCell>
        <mxCell id="ljbJ15JyHfFZLxI61GZZ-234" value="3" style="shape=partialRectangle;html=1;whiteSpace=wrap;connectable=0;strokeColor=inherit;overflow=hidden;fillColor=none;top=0;left=0;bottom=0;right=0;pointerEvents=1;" vertex="1" parent="ljbJ15JyHfFZLxI61GZZ-233">
          <mxGeometry width="110" height="40" as="geometry">
            <mxRectangle width="110" height="40" as="alternateBounds" />
          </mxGeometry>
        </mxCell>
        <mxCell id="ljbJ15JyHfFZLxI61GZZ-235" value="Ciencia Ficción" style="shape=partialRectangle;html=1;whiteSpace=wrap;connectable=0;strokeColor=inherit;overflow=hidden;fillColor=none;top=0;left=0;bottom=0;right=0;pointerEvents=1;" vertex="1" parent="ljbJ15JyHfFZLxI61GZZ-233">
          <mxGeometry x="110" width="110" height="40" as="geometry">
            <mxRectangle width="110" height="40" as="alternateBounds" />
          </mxGeometry>
        </mxCell>
      </root>
    </mxGraphModel>
  </diagram>
</mxfile>
